<svg width="197" height="198" viewBox="0 0 197 198" fill="none" xmlns="http://www.w3.org/2000/svg">
<rect width="197" height="198" rx="30" fill="#2F80ED"/>
<path d="M118.158 63.4213H150.304V71.2201H118.158V63.4213ZM85.9478 94.2782C93.0537 90.8783 96.7759 85.706 96.7759 77.7138C96.7759 61.9067 85.0132 58.0717 71.4297 58.0717H34.0469V137.413H72.4771C86.8823 137.413 100.401 130.485 100.401 114.372C100.401 104.413 95.6963 97.0497 85.9478 94.2782ZM51.4814 71.6069H67.8364C74.1367 71.6069 79.7925 73.3632 79.7925 80.6786C79.7925 87.414 75.3936 90.121 69.1577 90.121H51.4814V71.6069ZM70.0923 123.943H51.4653V102.093H70.4629C78.1328 102.093 82.9829 105.3 82.9829 113.421C82.9829 121.413 77.1982 123.943 70.0923 123.943ZM162.873 109.521C162.873 92.5219 152.931 78.3583 134.948 78.3583C117.465 78.3583 105.574 91.5229 105.574 108.78C105.574 126.666 116.837 138.944 134.948 138.944C148.661 138.944 157.539 132.773 161.809 119.608H147.903C146.389 124.523 140.233 127.101 135.448 127.101C126.199 127.101 121.365 121.687 121.365 112.486H162.76C162.808 111.536 162.873 110.537 162.873 109.521ZM121.365 102.528C121.864 94.9711 126.908 90.2499 134.449 90.2499C142.376 90.2499 146.34 94.9067 147.033 102.528H121.365Z" fill="white"/>
</svg>
