<svg width="197" height="198" viewBox="0 0 197 198" fill="none" xmlns="http://www.w3.org/2000/svg">
<rect width="197" height="198" rx="30" fill="#2F80ED"/>
<path fill-rule="evenodd" clip-rule="evenodd" d="M96 47C65.6354 47 41 71.6354 41 102C41 132.365 65.6354 157 96 157C126.305 157 151 132.365 151 102C151 71.6354 126.305 47 96 47ZM132.328 72.3504C139.099 80.5974 142.847 90.9125 142.947 101.583C141.398 101.285 125.888 98.1225 110.259 100.093C109.897 99.3142 109.599 98.48 109.241 97.6458C108.269 95.3514 107.236 93.0834 106.143 90.8442C123.44 83.8042 131.315 73.6658 132.328 72.3504ZM96 55.1171C107.93 55.1171 118.848 59.5858 127.139 66.9238C126.305 68.1154 119.205 77.6029 102.504 83.8638C94.8037 69.7288 86.2788 58.1512 84.9633 56.3638C88.5811 55.519 92.285 55.0991 96 55.1125V55.1171ZM76.0167 59.5263C77.2679 61.1992 85.6187 72.8317 93.4333 86.6688C71.4792 92.5171 52.0917 92.3979 50.0063 92.3979C53.0496 77.8412 62.8946 65.7321 76.0167 59.5263ZM48.9933 102.06V100.63C51.0238 100.689 73.8075 100.987 97.2558 93.9471C98.6263 96.5733 99.8775 99.2546 101.069 101.94C100.473 102.119 99.8179 102.298 99.2221 102.477C75.0038 110.291 62.1154 131.645 61.0429 133.437C53.2852 124.827 48.9924 113.649 48.9933 102.06ZM96 149.007C85.1421 149.007 75.1229 145.308 67.1892 139.107C68.0233 137.374 77.5658 119 104.053 109.755C104.172 109.695 104.236 109.695 104.351 109.636C110.974 126.755 113.655 141.133 114.375 145.248C108.705 147.696 102.504 149.007 96 149.007ZM122.189 140.954C121.713 138.089 119.205 124.371 113.059 107.486C127.795 105.162 140.678 108.98 142.292 109.517C140.261 122.579 132.745 133.854 122.189 140.954Z" fill="white"/>
</svg>
