<svg width="197" height="198" viewBox="0 0 197 198" fill="none" xmlns="http://www.w3.org/2000/svg">
<rect width="197" height="198" rx="30" fill="#2F80ED"/>
<path fill-rule="evenodd" clip-rule="evenodd" d="M77.1479 49.0191C82.6707 48.7648 84.4317 48.7083 98.5002 48.7083C112.569 48.7083 114.33 48.7695 119.848 49.0191C125.366 49.2686 129.133 50.1491 132.428 51.425C135.88 52.7292 139.011 54.768 141.6 57.4046C144.237 59.9895 146.271 63.1158 147.57 66.5717C148.851 69.8676 149.727 73.6342 149.981 79.143C150.235 84.6753 150.292 86.4362 150.292 100.5C150.292 114.568 150.231 116.329 149.981 121.852C149.732 127.361 148.851 131.128 147.57 134.424C146.271 137.88 144.234 141.011 141.6 143.6C139.011 146.237 135.88 148.271 132.428 149.57C129.133 150.851 125.366 151.727 119.857 151.981C114.33 152.235 112.569 152.292 98.5002 152.292C84.4317 152.292 82.6707 152.23 77.1479 151.981C71.6391 151.731 67.8725 150.851 64.5766 149.57C61.1203 148.271 57.9888 146.233 55.4001 143.6C52.7652 141.014 50.7262 137.884 49.4252 134.428C48.1492 131.132 47.2735 127.366 47.0192 121.857C46.765 116.325 46.7085 114.564 46.7085 100.5C46.7085 86.4315 46.7697 84.6706 47.0192 79.1524C47.2688 73.6342 48.1492 69.8676 49.4252 66.5717C50.7281 63.1162 52.7687 59.9863 55.4048 57.3999C57.9899 54.7656 61.1182 52.7266 64.5719 51.425C67.8677 50.1491 71.6344 49.2733 77.1432 49.0191H77.1479ZM119.429 58.3416C113.967 58.092 112.329 58.0402 98.5002 58.0402C84.6718 58.0402 83.0333 58.092 77.5716 58.3416C72.5196 58.5723 69.7793 59.4151 67.9525 60.126C65.5371 61.0677 63.8092 62.1836 61.9965 63.9963C60.2781 65.668 58.9557 67.7031 58.1262 69.9523C57.4152 71.7792 56.5725 74.5194 56.3417 79.5715C56.0922 85.0331 56.0404 86.6716 56.0404 100.5C56.0404 114.328 56.0922 115.967 56.3417 121.429C56.5725 126.481 57.4152 129.221 58.1262 131.048C58.9549 133.294 60.2779 135.332 61.9965 137.004C63.6679 138.722 65.7066 140.045 67.9525 140.874C69.7793 141.585 72.5196 142.428 77.5716 142.658C83.0333 142.908 84.6671 142.96 98.5002 142.96C112.333 142.96 113.967 142.908 119.429 142.658C124.481 142.428 127.221 141.585 129.048 140.874C131.463 139.932 133.191 138.816 135.004 137.004C136.722 135.332 138.045 133.294 138.874 131.048C139.585 129.221 140.428 126.481 140.659 121.429C140.908 115.967 140.96 114.328 140.96 100.5C140.96 86.6716 140.908 85.0331 140.659 79.5715C140.428 74.5194 139.585 71.7792 138.874 69.9523C137.932 67.537 136.817 65.809 135.004 63.9963C133.332 62.2781 131.297 60.9557 129.048 60.126C127.221 59.4151 124.481 58.5723 119.429 58.3416V58.3416ZM91.885 116.466C95.5794 118.004 99.6931 118.211 103.524 117.053C107.354 115.895 110.664 113.443 112.887 110.116C115.11 106.788 116.11 102.792 115.714 98.8102C115.319 94.828 113.553 91.1067 110.718 88.2819C108.911 86.4761 106.727 85.0934 104.321 84.2334C101.916 83.3733 99.3497 83.0573 96.8075 83.3081C94.2653 83.5588 91.8103 84.3701 89.6193 85.6835C87.4283 86.9969 85.5557 88.7797 84.1365 90.9037C82.7172 93.0277 81.7865 95.4399 81.4113 97.9667C81.0362 100.494 81.226 103.072 81.967 105.517C82.7081 107.961 83.9819 110.211 85.6969 112.105C87.4118 113.998 89.5253 115.487 91.885 116.466ZM79.6762 81.6761C82.1482 79.2041 85.0829 77.2432 88.3127 75.9054C91.5425 74.5675 95.0042 73.879 98.5002 73.879C101.996 73.879 105.458 74.5675 108.688 75.9054C111.917 77.2432 114.852 79.2041 117.324 81.6761C119.796 84.1481 121.757 87.0827 123.095 90.3126C124.433 93.5424 125.121 97.0041 125.121 100.5C125.121 103.996 124.433 107.458 123.095 110.687C121.757 113.917 119.796 116.852 117.324 119.324C112.332 124.316 105.56 127.121 98.5002 127.121C91.4398 127.121 84.6687 124.316 79.6762 119.324C74.6838 114.331 71.8791 107.56 71.8791 100.5C71.8791 93.4397 74.6838 86.6685 79.6762 81.6761V81.6761ZM131.025 77.8435C131.638 77.2656 132.128 76.5707 132.468 75.8C132.807 75.0292 132.988 74.1982 133 73.3561C133.012 72.5141 132.856 71.6782 132.539 70.8978C132.222 70.1175 131.752 69.4086 131.157 68.8131C130.562 68.2176 129.853 67.7477 129.072 67.4311C128.292 67.1145 127.456 66.9577 126.614 66.97C125.772 66.9823 124.941 67.1634 124.17 67.5026C123.399 67.8418 122.704 68.3322 122.127 68.9447C121.003 70.1361 120.387 71.7185 120.411 73.3561C120.435 74.9937 121.096 76.5575 122.254 77.7156C123.413 78.8737 124.976 79.5349 126.614 79.5587C128.252 79.5826 129.834 78.9673 131.025 77.8435V77.8435Z" fill="white"/>
</svg>
