<svg width="197" height="198" viewBox="0 0 197 198" fill="none" xmlns="http://www.w3.org/2000/svg">
<rect width="197" height="198" rx="30" fill="#2F80ED"/>
<path d="M146.5 81.888V120.562C146.5 124.506 144.992 128.299 142.284 131.166C139.575 134.032 135.873 135.753 131.937 135.976L131.062 136H66.9375C62.9943 136 59.2006 134.492 56.3344 131.784C53.4682 129.075 51.747 125.373 51.5238 121.437L51.5 120.562V81.888L97.347 105.904C97.857 106.171 98.4242 106.311 99 106.311C99.5758 106.311 100.143 106.171 100.653 105.904L146.5 81.888ZM66.9375 60H131.062C134.889 59.9995 138.579 61.4202 141.418 63.9865C144.256 66.5528 146.04 70.0818 146.424 73.889L99 98.7315L51.576 73.889C51.9442 70.233 53.6045 66.8282 56.2583 64.2867C58.9121 61.7452 62.3855 60.2336 66.054 60.0238L66.9375 60H131.062H66.9375Z" fill="white"/>
</svg>
