<svg width="197" height="198" viewBox="0 0 197 198" fill="none" xmlns="http://www.w3.org/2000/svg">
<rect width="197" height="198" rx="30" fill="#2F80ED"/>
<path d="M65.327 87.3148C65.327 83.5869 65.9786 80.065 67.2628 76.7779C68.4897 73.5852 70.3126 70.655 72.6343 68.1433C74.9512 65.6647 77.6026 63.5213 80.5118 61.7752C83.4966 59.9695 86.728 58.6072 90.1047 57.731C93.5221 56.8337 97.0411 56.3811 100.574 56.3846C106.032 56.3846 111.111 57.5394 115.822 59.8394C120.47 62.0974 124.427 65.5628 127.278 69.8731C130.221 74.2575 131.682 79.2169 131.682 84.7465C131.682 88.0623 131.356 91.3063 130.69 94.4783C130.036 97.6487 128.997 100.727 127.595 103.645C126.258 106.469 124.511 109.08 122.41 111.393C120.298 113.669 117.741 115.486 114.897 116.731C111.809 118.084 108.469 118.765 105.098 118.729C102.755 118.729 100.416 118.178 98.1068 117.071C95.7972 115.969 94.1393 114.455 93.1426 112.514C92.7928 113.861 92.3136 115.806 91.6763 118.35C91.063 120.89 90.6509 122.529 90.4688 123.271C90.2772 124.009 89.9226 125.241 89.4051 126.947C89.0541 128.209 88.6039 129.441 88.0586 130.631L86.4103 133.861C85.6975 135.247 84.9006 136.588 84.024 137.876C83.1568 139.132 82.0834 140.632 80.804 142.357L80.0901 142.611L79.6157 142.093C79.103 136.664 78.8395 133.415 78.8395 132.342C78.8395 129.165 79.218 125.6 79.9655 121.642C80.6986 117.689 81.8582 112.72 83.4155 106.745C84.9728 100.775 85.864 97.2623 86.1036 96.2225C85.0063 93.9848 84.4505 91.0619 84.4505 87.4681C84.4505 84.5979 85.3465 81.9098 87.1434 79.3798C88.9451 76.8594 91.2211 75.5992 93.9811 75.5992C96.0943 75.5992 97.733 76.2988 98.907 77.7027C100.086 79.1019 100.661 80.8652 100.661 83.0167C100.661 85.2975 99.9036 88.599 98.3799 92.9163C96.8561 97.2383 96.099 100.463 96.099 102.605C96.099 104.776 96.8753 106.592 98.4278 108.015C99.9599 109.439 101.986 110.21 104.077 110.166C105.975 110.166 107.733 109.735 109.367 108.868C110.976 108.026 112.368 106.824 113.435 105.355C115.76 102.166 117.418 98.5394 118.308 94.694C118.768 92.6719 119.123 90.7504 119.343 88.944C119.578 87.1279 119.679 85.4125 119.679 83.7833C119.679 77.8081 117.781 73.1506 114.01 69.8156C110.22 66.4806 105.285 64.8227 99.2136 64.8227C92.3088 64.8227 86.5349 67.0556 81.9109 71.5358C77.2822 76.0017 74.9534 81.6798 74.9534 88.5654C74.9534 90.0844 75.1834 91.5506 75.6195 92.969C76.0459 94.3825 76.5107 95.5085 77.0138 96.3423C77.5122 97.1617 77.9818 97.9619 78.4082 98.6998C78.8395 99.4377 79.0647 99.9648 79.0647 100.281C79.0647 101.249 78.8107 102.509 78.298 104.066C77.7661 105.624 77.1384 106.4 76.3813 106.4C76.3095 106.4 76.0124 106.347 75.4949 106.237C73.7026 105.702 72.0841 104.702 70.8038 103.338C69.4451 101.925 68.3728 100.262 67.6461 98.441C66.9215 96.6267 66.3571 94.7524 65.9595 92.8396C65.5298 91.0297 65.3175 89.175 65.327 87.3148V87.3148Z" fill="white"/>
</svg>
